<svg xmlns="http://www.w3.org/2000/svg" width="18" height="18" viewBox="0 0 18 18" fill="none">
  <g opacity="0.5">
    <path d="M11.43 1.5H8.5095C7.1865 1.5 6.138 1.5 5.31825 1.611C4.47375 1.725 3.7905 1.965 3.252 2.50575C2.71275 3.0465 2.4735 3.73275 2.36025 4.58025C2.25 5.40375 2.25 6.456 2.25 7.78425V12.1627C2.25 13.2937 2.94 14.2627 3.92025 14.6693C3.87 13.9867 3.87 13.0305 3.87 12.234V8.4765C3.87 7.51575 3.87 6.687 3.9585 6.024C4.05375 5.313 4.26825 4.632 4.81875 4.07925C5.36925 3.5265 6.048 3.31125 6.756 3.21525C7.416 3.12675 8.241 3.12675 9.19875 3.12675H11.5013C12.4583 3.12675 13.2817 3.12675 13.9425 3.21525C13.7446 2.70997 13.399 2.27605 12.9508 1.97009C12.5026 1.66412 11.9727 1.5003 11.43 1.5Z" fill="white"/>
    <path d="M4.95001 8.54776C4.95001 6.50326 4.95001 5.48101 5.58301 4.84576C6.21526 4.21051 7.23301 4.21051 9.27001 4.21051H11.43C13.4663 4.21051 14.4848 4.21051 15.1178 4.84576C15.7508 5.48101 15.75 6.50326 15.75 8.54776V12.1628C15.75 14.2073 15.75 15.2295 15.1178 15.8648C14.4848 16.5 13.4663 16.5 11.43 16.5H9.27001C7.23376 16.5 6.21526 16.5 5.58301 15.8648C4.95001 15.2295 4.95001 14.2073 4.95001 12.1628V8.54776Z" fill="white"/>
  </g>
</svg>