<svg width="22" height="22" viewBox="0 0 22 22" fill="none" xmlns="http://www.w3.org/2000/svg">
<g id="ic:baseline-discord">
<path id="Vector" d="M17.6642 4.88582C16.445 4.31749 15.125 3.90499 13.75 3.66666C13.7258 3.667 13.7028 3.67689 13.6858 3.69416C13.5208 3.99666 13.3283 4.39082 13.2 4.69332C11.7416 4.47346 10.2584 4.47346 8.8 4.69332C8.67166 4.38166 8.47916 3.99666 8.305 3.69416C8.29583 3.67582 8.26833 3.66666 8.24083 3.66666C6.86583 3.90499 5.555 4.31749 4.32666 4.88582C4.3175 4.88582 4.30833 4.89499 4.29916 4.90416C1.80583 8.63499 1.11833 12.265 1.4575 15.8583C1.4575 15.8767 1.46666 15.895 1.485 15.9042C3.135 17.1142 4.72083 17.8475 6.28833 18.3333C6.31583 18.3425 6.34333 18.3333 6.3525 18.315C6.71916 17.8108 7.04916 17.2792 7.33333 16.72C7.35166 16.6833 7.33333 16.6467 7.29666 16.6375C6.77416 16.4358 6.27916 16.1975 5.79333 15.9225C5.75666 15.9042 5.75666 15.8492 5.78416 15.8217C5.885 15.7483 5.98583 15.6658 6.08666 15.5925C6.105 15.5742 6.1325 15.5742 6.15083 15.5833C9.30416 17.0225 12.705 17.0225 15.8217 15.5833C15.84 15.5742 15.8675 15.5742 15.8858 15.5925C15.9867 15.675 16.0875 15.7483 16.1883 15.8308C16.225 15.8583 16.225 15.9133 16.1792 15.9317C15.7025 16.2158 15.1983 16.445 14.6758 16.6467C14.6392 16.6558 14.63 16.7017 14.6392 16.7292C14.9325 17.2883 15.2625 17.82 15.62 18.3242C15.6475 18.3333 15.675 18.3425 15.7025 18.3333C17.2792 17.8475 18.865 17.1142 20.515 15.9042C20.5333 15.895 20.5425 15.8767 20.5425 15.8583C20.9458 11.7058 19.8733 8.10332 17.7008 4.90416C17.6917 4.89499 17.6825 4.88582 17.6642 4.88582ZM7.81 13.6675C6.86583 13.6675 6.0775 12.7967 6.0775 11.7242C6.0775 10.6517 6.8475 9.78082 7.81 9.78082C8.78166 9.78082 9.55166 10.6608 9.5425 11.7242C9.5425 12.7967 8.7725 13.6675 7.81 13.6675ZM14.1992 13.6675C13.255 13.6675 12.4667 12.7967 12.4667 11.7242C12.4667 10.6517 13.2367 9.78082 14.1992 9.78082C15.1708 9.78082 15.9408 10.6608 15.9317 11.7242C15.9317 12.7967 15.1708 13.6675 14.1992 13.6675Z" fill="#DDCC42"/>
</g>
</svg>
