<svg xmlns="http://www.w3.org/2000/svg" width="21" height="21" viewBox="0 0 21 21" fill="none">
<path fill-rule="evenodd" clip-rule="evenodd" d="M10.5 1.75C5.66563 1.75 1.75 5.66562 1.75 10.5C1.74848 12.337 2.32573 14.1278 3.39978 15.6181C4.47383 17.1084 5.99009 18.2224 7.73325 18.802C8.17075 18.8781 8.33438 18.6156 8.33438 18.3855C8.33438 18.1781 8.323 17.4895 8.323 16.7562C6.125 17.1614 5.55625 16.2207 5.38125 15.7281C5.28238 15.4761 4.85625 14.7 4.48438 14.4917C4.17813 14.3281 3.74063 13.923 4.473 13.9125C5.1625 13.9011 5.65425 14.5469 5.81875 14.8094C6.60625 16.1324 7.8645 15.7605 8.36675 15.5312C8.44375 14.9625 8.673 14.5801 8.925 14.3614C6.97813 14.1426 4.94375 13.3875 4.94375 10.0406C4.94375 9.08862 5.28238 8.302 5.84063 7.6895C5.75313 7.47075 5.44688 6.57387 5.92813 5.37075C5.92813 5.37075 6.6605 5.14062 8.33438 6.26675C9.04677 6.06956 9.7827 5.97036 10.5219 5.97187C11.2656 5.97187 12.0094 6.06987 12.7094 6.26675C14.3824 5.12925 15.1156 5.37075 15.1156 5.37075C15.5969 6.57387 15.2906 7.47075 15.2031 7.6895C15.7605 8.302 16.1 9.07812 16.1 10.0406C16.1 13.3989 14.0551 14.1426 12.1083 14.3614C12.425 14.6344 12.6989 15.1594 12.6989 15.9801C12.6989 17.15 12.6875 18.0906 12.6875 18.3864C12.6875 18.6156 12.852 18.8886 13.2895 18.8011C15.0261 18.2142 16.5351 17.0978 17.6043 15.6088C18.6734 14.1198 19.249 12.3331 19.25 10.5C19.25 5.66562 15.3344 1.75 10.5 1.75Z" fill="white"/>
</svg>