<svg xmlns="http://www.w3.org/2000/svg" width="24" height="24" viewBox="0 0 24 24" fill="none">
  <path d="M9.75 9C9.75 8.40326 9.98705 7.83097 10.409 7.40901C10.831 6.98705 11.4033 6.75 12 6.75C12.5967 6.75 13.169 6.98705 13.591 7.40901C14.0129 7.83097 14.25 8.40326 14.25 9C14.25 9.59674 14.0129 10.169 13.591 10.591C13.169 11.0129 12.5967 11.25 12 11.25C11.4033 11.25 10.831 11.0129 10.409 10.591C9.98705 10.169 9.75 9.59674 9.75 9Z" fill="white"/>
  <path fill-rule="evenodd" clip-rule="evenodd" d="M11.838 2.5C10.2936 2.50006 8.80566 3.08091 7.66969 4.12723C6.53371 5.17354 5.83275 6.60879 5.706 8.148C5.56506 9.86359 6.09486 11.567 7.184 12.9L10.779 17.296C10.927 17.4768 11.1133 17.6225 11.3245 17.7225C11.5356 17.8225 11.7663 17.8744 12 17.8744C12.2336 17.8744 12.4644 17.8225 12.6755 17.7225C12.8867 17.6225 13.073 17.4768 13.221 17.296L16.816 12.9C17.9061 11.5675 18.436 9.86371 18.294 8.148C18.1672 6.60879 17.4663 5.17354 16.3303 4.12723C15.1943 3.08091 13.7064 2.50006 12.162 2.5H11.838ZM12 5.25C11.0054 5.25 10.0516 5.64509 9.34835 6.34835C8.64508 7.05161 8.25 8.00544 8.25 9C8.25 9.99456 8.64508 10.9484 9.34835 11.6517C10.0516 12.3549 11.0054 12.75 12 12.75C12.9946 12.75 13.9484 12.3549 14.6516 11.6517C15.3549 10.9484 15.75 9.99456 15.75 9C15.75 8.00544 15.3549 7.05161 14.6516 6.34835C13.9484 5.64509 12.9946 5.25 12 5.25Z" fill="white"/>
  <path d="M7.33501 15.33C7.51271 15.4189 7.64789 15.5746 7.71088 15.763C7.77388 15.9515 7.75954 16.1572 7.67101 16.335L6.21401 19.25H17.787L16.329 16.335C16.2841 16.2468 16.2571 16.1506 16.2496 16.0519C16.2421 15.9532 16.2541 15.854 16.2851 15.76C16.3161 15.666 16.3654 15.579 16.4302 15.5042C16.4949 15.4293 16.5738 15.368 16.6624 15.3238C16.751 15.2796 16.8474 15.2533 16.9461 15.2466C17.0449 15.2398 17.144 15.2526 17.2378 15.2844C17.3315 15.3161 17.4181 15.3661 17.4924 15.4314C17.5668 15.4967 17.6275 15.5761 17.671 15.665L19.671 19.665C19.7281 19.7794 19.755 19.9064 19.7492 20.0341C19.7434 20.1617 19.7051 20.2858 19.6379 20.3945C19.5706 20.5032 19.4768 20.5929 19.3651 20.6551C19.2535 20.7174 19.1278 20.75 19 20.75H5.00001C4.8723 20.7499 4.74674 20.7171 4.63524 20.6548C4.52375 20.5925 4.43 20.5028 4.3629 20.3941C4.2958 20.2854 4.25756 20.1614 4.2518 20.0338C4.24604 19.9062 4.27297 19.7793 4.33001 19.665L6.33001 15.665C6.41887 15.4873 6.57459 15.3522 6.76302 15.2892C6.95144 15.2262 7.15715 15.2415 7.33501 15.33Z" fill="white"/>
</svg>