<svg width="18" height="18" viewBox="0 0 18 18" fill="none" xmlns="http://www.w3.org/2000/svg">
<g id="zondicons:network" clip-path="url(#clip0_1_35)">
<path id="Vector" d="M9 18C6.61305 18 4.32387 17.0518 2.63604 15.364C0.948211 13.6761 0 11.3869 0 9C0 6.61305 0.948211 4.32387 2.63604 2.63604C4.32387 0.948211 6.61305 0 9 0C11.3869 0 13.6761 0.948211 15.364 2.63604C17.0518 4.32387 18 6.61305 18 9C18 11.3869 17.0518 13.6761 15.364 15.364C13.6761 17.0518 11.3869 18 9 18ZM15.975 10.8C16.2798 9.61936 16.2798 8.38064 15.975 7.2H12.537C12.6199 8.39857 12.6199 9.60143 12.537 10.8H15.975ZM15.237 12.6H12.339C12.1886 13.6849 11.9013 14.7464 11.484 15.759C13.065 15.1758 14.3926 14.0584 15.237 12.6ZM7.272 10.8H10.728C10.8257 9.60199 10.8257 8.39801 10.728 7.2H7.272C7.17428 8.39801 7.17428 9.60199 7.272 10.8ZM7.497 12.6C7.866 14.76 8.514 16.2 9 16.2C9.486 16.2 10.134 14.76 10.503 12.6H7.497ZM2.025 10.8H5.463C5.38014 9.60143 5.38014 8.39857 5.463 7.2H2.025C1.72016 8.38064 1.72016 9.61936 2.025 10.8ZM2.763 12.6C3.60743 14.0584 4.93495 15.1758 6.516 15.759C6.138 14.895 5.85 13.815 5.661 12.6H2.763ZM15.237 5.4C14.3926 3.94164 13.065 2.82423 11.484 2.241C11.862 3.105 12.15 4.185 12.339 5.4H15.237ZM7.497 5.4H10.503C10.134 3.24 9.486 1.8 9 1.8C8.514 1.8 7.866 3.24 7.497 5.4ZM2.763 5.4H5.661C5.841 4.185 6.138 3.105 6.516 2.241C4.93495 2.82423 3.60743 3.94164 2.763 5.4Z" fill="#DDCC42"/>
</g>
<defs>
<clipPath id="clip0_1_35">
<rect width="18" height="18" fill="white"/>
</clipPath>
</defs>
</svg>
