<svg xmlns="http://www.w3.org/2000/svg" width="21" height="21" viewBox="0 0 21 21" fill="none">
  <path fill-rule="evenodd" clip-rule="evenodd" d="M10.5 1.75V7.4375C10.5 7.7856 10.6383 8.11944 10.8844 8.36558C11.1306 8.61172 11.4644 8.75 11.8125 8.75H17.5V17.5C17.5 17.9641 17.3156 18.4092 16.9874 18.7374C16.6592 19.0656 16.2141 19.25 15.75 19.25H5.25C4.78587 19.25 4.34075 19.0656 4.01256 18.7374C3.68437 18.4092 3.5 17.9641 3.5 17.5V3.5C3.5 3.03587 3.68437 2.59075 4.01256 2.26256C4.34075 1.93437 4.78587 1.75 5.25 1.75H10.5ZM9.63462 10.367C9.42517 11.6997 8.72824 12.9071 7.679 13.755C6.90287 14.3815 7.6125 15.6109 8.5435 15.253C9.80247 14.7681 11.1967 14.7681 12.4556 15.253C13.3866 15.6117 14.0962 14.3824 13.3201 13.755C12.2709 12.9071 11.574 11.6997 11.3645 10.367C11.2096 9.38175 9.7895 9.38087 9.63462 10.367ZM10.5 12.5151L11.2052 13.7349H9.7965L10.5 12.5151ZM12.25 1.78762C12.5815 1.85794 12.8855 2.02299 13.125 2.26275L16.9872 6.125C17.227 6.36451 17.3921 6.66848 17.4624 7H12.25V1.78762Z" fill="white"/>
</svg>