<svg xmlns="http://www.w3.org/2000/svg" width="26" height="26" viewBox="0 0 26 26" fill="none">
  <path d="M22.75 11.9166C22.75 17.9291 18.59 23.5516 13 24.9166C7.41 23.5516 3.25 17.9291 3.25 11.9166V5.41665L13 1.08331L22.75 5.41665V11.9166ZM13 22.75C17.0625 21.6666 20.5833 16.835 20.5833 12.155V6.82498L13 3.44498L5.41667 6.82498V12.155C5.41667 16.835 8.9375 21.6666 13 22.75ZM16.0333 11.9166V10.2916C16.0333 8.77498 14.5167 7.58331 13 7.58331C11.4833 7.58331 9.96667 8.77498 9.96667 10.2916V11.9166C9.31667 11.9166 8.66667 12.5666 8.66667 13.2166V17.0083C8.66667 17.7666 9.31667 18.4166 9.96667 18.4166H15.925C16.6833 18.4166 17.3333 17.7666 17.3333 17.1166V13.325C17.3333 12.5666 16.6833 11.9166 16.0333 11.9166ZM14.625 11.9166H11.375V10.2916C11.375 9.42498 12.1333 8.88331 13 8.88331C13.8667 8.88331 14.625 9.42498 14.625 10.2916V11.9166Z" fill="#C9B93E"/>
</svg>